<svg version="1" xmlns="http://www.w3.org/2000/svg" width="933.333" height="933.333" viewBox="0 0 700.000000 700.000000"><path d="M336.7 5.5c-.1.2-5.1.6-11.2.9-6 .4-12.1.9-13.5 1.1-1.4.1-5 .6-8 .9-49.3 6-105.1 27.3-147.5 56.5C148.6 70.3 133 81.8 132 83c-.3.3-3.2 2.8-6.5 5.5-7.2 5.9-30.1 28.8-36.6 36.5-25.4 30.3-44.1 60.6-56.9 92.2-2.2 5.7-4.5 11.2-5 12.3-3.5 7.5-13.7 44-15.4 55.1-1.3 7.6-1.6 9.9-2.1 12.4-.8 4.1-2.3 16.9-3.1 26.5-1.3 16-.7 55.1 1 64 .2 1.1.7 4.7 1.1 8 4 35.3 17.3 77.7 35.3 112.5 5.5 10.8 20.9 36.4 24.1 40.2.6.7 4.2 5.4 7.9 10.3 7.6 10.2 9 11.8 21.4 25.4 13.1 14.5 29.5 29.3 45.3 41.1 3.3 2.5 6.2 4.7 6.5 5 .7.8 16.9 11.3 24.6 16 17.2 10.6 44.5 23.2 65.9 30.5 11.2 3.8 37.8 10.8 45 11.9 2.2.4 6.5 1.1 9.5 1.6 5.2.9 10 1.6 18 2.5 20.4 2.4 58.4 2.4 76 0 1.4-.2 4.8-.6 7.5-.9 47.2-5.8 102.6-26.1 140.7-51.8 3.1-2.1 5.9-3.8 6.2-3.8.3 0 5.2-3.5 10.8-7.7 58.5-43.7 99.9-100 123-167.3 12.6-36.8 18.6-74.7 18.2-114.9-.1-10.2-.4-20.8-.8-23.4-.3-2.7-.8-7.6-1.1-11-.5-5.4-3.4-24.2-5-31.7-.3-1.4-.7-3.5-.9-4.7-1.2-5.8-7.1-26.7-9.8-34.8-8-23.7-21.2-52-32.3-69.5-5.8-9.1-13.9-21.5-14.5-22-.3-.3-3.2-4.1-6.5-8.5-13.4-18-36-41.4-54.5-56.5-3-2.5-5.7-4.7-6-5-.3-.3-3-2.3-6-4.5s-5.7-4.2-6-4.5c-.3-.4-3.9-2.9-8-5.7-22.2-14.7-46.9-27.5-72-37.1-14.1-5.4-44.1-13.8-55.6-15.6-2.1-.4-6.4-1.1-9.4-1.6s-7.5-1.2-10-1.5c-2.5-.3-5.6-.7-7-1-8.2-1.3-51.1-2.9-52.3-2zm34 32.9c15.1 1.1 27.2 2.5 28.4 3.1.3.2 2.8.7 5.5 1 7.6 1 32.7 7.3 44.4 11.2 57.8 19.3 106.4 53.8 147.2 104.1 20 24.7 41.2 64.8 51.3 97 2.7 8.8 8 29 8.9 34.2 4.4 25.3 5.7 39 5.7 60.6 0 8.7-.2 18.8-.6 22.4-.3 3.6-.7 8.6-.9 11.2-.2 2.6-.7 5.9-1 7.5-.3 1.5-.8 5-1.1 7.6-3.8 31.5-19.8 76.7-38.3 108.4-7.3 12.4-23.9 36.5-27.1 39.3-.3.3-2.6 3-5.1 6-6.6 8.2-26 27.7-34.7 35-44.8 37.7-95.6 61.5-151.8 71-6 1-14.6 2.1-19 2.5-4.4.4-9.1.9-10.5 1.1-3.5.6-37.3.5-44-.1-23.4-2.1-31.9-3.4-47.5-7-50.3-11.8-94.3-34-134.5-68-8-6.8-31.1-30.7-38.6-40-19.6-24.3-35.3-50.8-46.7-79-4.1-9.9-10-26.9-11.2-32-.3-1.1-1.6-6.4-2.9-11.8-1.4-5.4-2.7-11.2-3-13-.3-1.8-1-5.5-1.5-8.3-.5-2.8-1.2-7.3-1.6-10-.3-2.7-.7-6.5-1-8.4-2.5-20.6-2.1-55.5 1-76.6.7-4.7 3.2-19.1 3.9-21.9 10.8-49.2 31.5-92.9 62-130.9 9-11.2 31.6-34.4 41.6-42.7 3.6-3 6.7-5.6 7-5.9 3-3.3 30.7-22.1 40.1-27.3 12.1-6.6 16.2-8.7 25.4-12.9 20.6-9.4 42.4-16.6 64.5-21.2 15-3.1 16.9-3.4 24-4.2 3-.3 6.6-.7 8-1 1.4-.2 7.5-.7 13.5-1 6.1-.4 11.1-.7 11.2-.8.4-.3 21.3.3 29 .8z"/><path d="M178.6 136.8c-.3.3-.6 8.1-.6 17.4V171h-40v6.7c-.2 34.2 0 60.5.4 61.2.4.5 23.4.9 53.2.9 28.9 0 52.8.3 53.1.6.3.3.5 67.3.5 149 0 81.8.3 148.7.6 148.7 3 .6 73 .4 74.2-.2 1.3-.6 1.6-3.3 1.5-16.9 0-10.1.3-16.4 1-16.8.5-.4 9.6-.7 20-.7h19l.5-131.9.5-131.8H429V205l20.2-.2 20.3-.3v-33.8c0-29.2-.2-33.8-1.5-34.2-2.3-.6-288.8-.4-289.4.3zM358.5 518c-8.2 1.9-14.8 6.9-17.9 13.5-.9 1.9-2.5 3.9-3.6 4.5-2.6 1.4-7.4 8.6-9 13.4-1.6 5-1.6 14.3 0 19.3 4.1 12.5 16.1 19.4 31.2 17.8 10.3-1 18.5-6.1 22.5-13.9.9-1.7 3-4.3 4.9-5.9 10.4-8.7 11.8-27.7 2.8-39.4-3.1-4.1-8.7-7.8-13.4-8.8-4.9-1.1-13.9-1.3-17.5-.5zM438.9 517.5c-.2.2-1.7.5-3.4.8-7.7 1.3-14 5.9-17.6 12.9-1.1 2.1-3.1 4.5-4.5 5.4-5.3 3.5-10.4 16.3-9.7 24.3 1.6 17.1 12.9 26.5 31.2 25.7 10.6-.5 19.9-5.9 24.1-14.2.8-1.6 2.8-4.1 4.5-5.5 14.5-12.6 11-38.7-6.2-46.6-4.6-2.1-17.2-4-18.4-2.8zM509.9 518.7c-5.3 1.5-12.2 7.1-14.5 11.7-.9 1.7-3.4 4.8-5.5 6.9-6.2 6-8.2 10.9-8.5 20.5-.5 12.9 4.2 21.4 14.5 26.3 6.7 3.2 20.6 3.2 27.6.1 4.9-2.2 12.5-9.4 12.5-11.8 0-.7 2-3.1 4.4-5.4 6.8-6.5 9.1-11.9 9-21.5 0-6.2-.5-9-2.3-12.7-2.7-5.5-8.4-11.1-13.8-13.4-4.9-2-17.5-2.4-23.4-.7z"/></svg>